<?xml version="1.0" encoding="UTF-8" standalone="no"?>
<!DOCTYPE svg PUBLIC "-//W3C//DTD SVG 1.1//EN" "http://www.w3.org/Graphics/SVG/1.1/DTD/svg11.dtd">
<!-- Generated by Microsoft Visio, SVG Export onto_logo_text_blue_min_w325_h60.svg svg23 -->
<svg xmlns="http://www.w3.org/2000/svg" xmlns:xlink="http://www.w3.org/1999/xlink" xmlns:ev="http://www.w3.org/2001/xml-events"
		xmlns:v="http://schemas.microsoft.com/visio/2003/SVGExtensions/" width="3.80208in" height="0.625in" viewBox="0 0 273.75 45"
		xml:space="preserve" color-interpolation-filters="sRGB" class="st2">
	<v:documentProperties v:langID="1033">
		<v:userDefs>
			<v:ud v:nameU="msvConvertTheme"/>
		</v:userDefs>
	</v:documentProperties>

	<style type="text/css">
	<![CDATA[
		.st1 {fill:#0379c4;stroke:none;stroke-width:1.095}
		.st2 {fill:none;fill-rule:evenodd;font-size:12px;overflow:visible;stroke-linecap:square;stroke-miterlimit:3}
	]]>
	</style>

	<g v:mID="0" v:index="1" v:groupContext="foregroundPage">
		<title>svg23</title>
		<v:pageProperties v:drawingScale="1" v:pageScale="1" v:drawingUnits="19" v:shadowOffsetX="9" v:shadowOffsetY="-9"/>
		<g id="shape1-1" v:mID="1" v:groupContext="shape" transform="translate(11.1757,-4.52649)">
			<title>path13</title>
			<path d="M195.21 9.64 C194.05 9.64 193.12 10.04 192.43 10.84 C191.73 11.6 191.38 12.55 191.38 13.71 C191.38 14.88 191.73
						 15.87 192.43 16.69 C193.12 17.49 194.03 17.89 195.16 17.89 C196.32 17.89 197.25 17.49 197.94 16.69 C198.63
						 15.87 198.98 14.88 198.98 13.71 C198.98 12.55 198.63 11.6 197.94 10.84 C197.25 10.04 196.33 9.64 195.21
						 9.64 ZM57.29 13.56 L57.29 34.77 C57.29 36.32 57.51 37.7 57.98 38.9 C58.45 40.08 59.08 41.09 59.91 41.92
						 C60.78 42.72 61.79 43.33 62.94 43.76 C64.14 44.19 65.44 44.41 66.87 44.41 C67.66 44.41 68.41 44.35 69.1
						 44.26 C69.8 44.16 70.34 44.02 70.74 43.86 L70.74 38.15 C70.28 38.31 69.8 38.45 69.3 38.55 C68.84 38.65 68.25
						 38.69 67.56 38.69 C66.44 38.69 65.56 38.33 64.93 37.6 C64.33 36.84 64.04 35.89 64.04 34.77 L64.04 25.88
						 L70 25.88 L70 20.67 L64.04 20.67 L64.04 13.56 L57.29 13.56 ZM174.35 13.56 L174.35 34.77 C174.35 36.32 174.59
						 37.7 175.04 38.9 C175.51 40.08 176.16 41.09 176.98 41.92 C177.85 42.72 178.85 43.33 180.02 43.76 C181.2
						 44.19 182.51 44.41 183.94 44.41 C184.73 44.41 185.47 44.35 186.17 44.26 C186.86 44.16 187.42 44.02 187.81
						 43.86 L187.81 38.15 C187.35 38.31 186.87 38.45 186.37 38.55 C185.9 38.65 185.33 38.69 184.64 38.69 C183.5
						 38.69 182.63 38.33 182 37.6 C181.4 36.84 181.1 35.89 181.1 34.77 L181.1 25.88 L187.06 25.88 L187.06 20.67
						 L181.1 20.67 L181.1 13.56 L174.35 13.56 ZM12.46 20.08 C10.68 20.08 9.02 20.39 7.5 21.01 C5.98 21.61 4.65
						 22.47 3.52 23.6 C2.44 24.69 1.58 26 0.94 27.53 C0.31 29.04 0 30.72 0 32.54 C0 34.36 0.31 36.03 0.94 37.55
						 C1.58 39.08 2.44 40.4 3.52 41.52 C4.65 42.62 5.98 43.48 7.5 44.11 C9.02 44.71 10.68 45 12.46 45 C14.25 45
						 15.9 44.71 17.43 44.11 C18.95 43.48 20.26 42.62 21.35 41.52 C22.47 40.4 23.35 39.08 23.99 37.55 C24.62 36.03
						 24.93 34.36 24.93 32.54 C24.93 30.72 24.62 29.04 23.99 27.53 C23.35 26 22.47 24.69 21.35 23.6 C20.26 22.47
						 18.95 21.61 17.43 21.01 C15.9 20.39 14.25 20.08 12.46 20.08 ZM40.86 20.08 C37.49 20.08 34.82 20.78 32.87
						 22.21 C30.92 23.6 29.94 25.78 29.94 28.77 L29.94 44.41 L36.59 44.41 L36.59 29.46 C36.59 27.94 36.92 26.86
						 37.59 26.23 C38.24 25.56 39.32 25.24 40.82 25.24 C42.3 25.24 43.38 25.56 44.04 26.23 C44.7 26.86 45.03 27.94
						 45.03 29.46 L45.03 44.41 L51.78 44.41 L51.78 28.77 C51.78 25.78 50.81 23.6 48.86 22.21 C46.9 20.78 44.24
						 20.08 40.86 20.08 ZM114.04 20.08 C110.7 20.08 108.07 20.78 106.14 22.21 C104.23 23.6 103.27 25.78 103.27
						 28.77 L103.27 44.41 L109.87 44.41 L109.87 29.46 C109.87 27.94 110.18 26.86 110.81 26.23 C111.44 25.56 112.5
						 25.24 113.99 25.24 C115.48 25.24 116.54 25.56 117.17 26.23 C117.83 26.86 118.17 27.94 118.17 29.46 L118.17
						 44.41 L124.52 44.41 L124.52 29.01 C124.58 27.65 124.95 26.7 125.61 26.13 C126.27 25.54 127.3 25.24 128.69
						 25.24 C130.18 25.24 131.24 25.56 131.87 26.23 C132.49 26.86 132.81 27.94 132.81 29.46 L132.81 44.41 L139.51
						 44.41 L139.51 28.77 C139.51 25.78 138.54 23.6 136.58 22.21 C134.67 20.78 132.05 20.08 128.74 20.08 C127.15
						 20.08 125.76 20.31 124.57 20.76 C123.38 21.23 122.35 21.81 121.49 22.51 C120.63 21.78 119.58 21.2 118.36
						 20.76 C117.14 20.31 115.7 20.08 114.04 20.08 ZM155.89 20.08 C154.2 20.08 152.66 20.35 151.27 20.92 C149.91
						 21.45 148.74 22.22 147.74 23.26 C146.76 24.24 145.97 25.47 145.41 26.92 C144.89 28.35 144.61 29.95 144.61
						 31.74 C144.61 33.63 144.89 35.38 145.41 37.01 C145.97 38.63 146.78 40.04 147.8 41.23 C148.86 42.39 150.15
						 43.31 151.67 44.01 C153.19 44.67 154.92 45 156.83 45 C158.66 45 160.29 44.75 161.75 44.26 C163.24 43.72
						 164.5 42.95 165.52 41.92 C166.59 40.89 167.39 39.61 167.95 38.05 C168.52 36.5 168.8 34.67 168.8 32.59 L168.8
						 20.67 L162.84 20.67 L162.84 23.01 C162.14 22.21 161.24 21.53 160.11 20.96 C158.98 20.37 157.58 20.08 155.89
						 20.08 ZM219.16 20.08 C216.97 20.08 214.96 20.34 213.11 20.86 C211.29 21.4 209.71 22.21 208.39 23.3 C207.06
						 24.4 206.02 25.76 205.26 27.42 C204.54 29.04 204.16 30.97 204.16 33.18 C204.16 35.3 204.54 37.13 205.26
						 38.64 C205.99 40.14 207.02 41.36 208.34 42.32 C209.69 43.25 211.29 43.92 213.11 44.35 C214.96 44.78 217.01
						 45 219.26 45 C220.22 45 221.14 44.95 221.99 44.85 C222.89 44.78 223.68 44.71 224.37 44.61 L224.37 39.29
						 C223.82 39.42 223.17 39.52 222.45 39.59 C221.72 39.65 220.87 39.69 219.91 39.69 C216.97 39.69 214.73 39.18
						 213.21 38.15 C211.68 37.09 210.92 35.37 210.92 32.98 C210.92 30.3 211.67 28.37 213.16 27.17 C214.67 25.98
						 216.9 25.38 219.81 25.38 C220.81 25.38 221.63 25.42 222.29 25.49 C222.99 25.55 223.64 25.65 224.23 25.78
						 L224.23 20.47 C223.54 20.37 222.76 20.29 221.89 20.23 C221.03 20.13 220.13 20.08 219.16 20.08 ZM239.79 20.08
						 C238.1 20.08 236.56 20.35 235.17 20.92 C233.81 21.45 232.63 22.22 231.64 23.26 C230.65 24.24 229.87 25.47
						 229.3 26.92 C228.78 28.35 228.52 29.95 228.52 31.74 C228.52 33.63 228.78 35.38 229.3 37.01 C229.87 38.63
						 230.67 40.04 231.69 41.23 C232.75 42.39 234.05 43.31 235.56 44.01 C237.09 44.67 238.81 45 240.74 45 C242.55
						 45 244.19 44.75 245.64 44.26 C247.14 43.72 248.39 42.95 249.42 41.92 C250.48 40.89 251.29 39.61 251.85 38.05
						 C252.42 36.5 252.7 34.67 252.7 32.59 L252.7 20.67 L246.74 20.67 L246.74 23.01 C246.05 22.21 245.13 21.53
						 244 20.96 C242.88 20.37 241.47 20.08 239.79 20.08 ZM191.73 20.67 L191.73 44.41 L198.49 44.41 L198.49 20.67
						 L191.73 20.67 ZM12.46 25.38 C14.22 25.38 15.61 25.98 16.63 27.17 C17.67 28.37 18.18 30.15 18.18 32.54 C18.18
						 34.93 17.67 36.71 16.63 37.9 C15.61 39.09 14.22 39.69 12.46 39.69 C10.71 39.69 9.33 39.09 8.29 37.9 C7.27
						 36.71 6.75 34.93 6.75 32.54 C6.75 30.15 7.27 28.37 8.29 27.17 C9.33 25.98 10.71 25.38 12.46 25.38 ZM156.89
						 25.38 C158.57 25.38 159.92 25.98 160.91 27.17 C161.9 28.37 162.4 30.15 162.4 32.54 C162.4 34.93 161.9 36.71
						 160.91 37.9 C159.92 39.09 158.57 39.69 156.89 39.69 C155.2 39.69 153.86 39.09 152.86 37.9 C151.87 36.71
						 151.37 34.93 151.37 32.54 C151.37 30.15 151.87 28.37 152.86 27.17 C153.86 25.98 155.2 25.38 156.89 25.38
						 ZM240.78 25.38 C242.47 25.38 243.81 25.98 244.81 27.17 C245.79 28.37 246.29 30.15 246.29 32.54 C246.29 34.93
						 245.79 36.71 244.81 37.9 C243.81 39.09 242.47 39.69 240.78 39.69 C239.09 39.69 237.75 39.09 236.76 37.9
						 C235.76 36.71 235.26 34.93 235.26 32.54 C235.26 30.15 235.76 28.37 236.76 27.17 C237.75 25.98 239.09 25.38
						 240.78 25.38 Z" class="st1"/>
		</g>
		<g id="shape2-3" v:mID="2" v:groupContext="shape" transform="translate(84.3973,-5.12144)">
			<title>path18</title>
			<path d="M12.67 9.64 C10.84 9.64 9.15 9.98 7.59 10.64 C6.04 11.26 4.7 12.16 3.58 13.32 C2.45 14.44 1.58 15.78 0.94 17.34
						 C0.31 18.9 0 20.6 0 22.45 C0 24.31 0.31 26.02 0.94 27.57 C1.58 29.13 2.45 30.48 3.58 31.64 C4.7 32.77 6.04
						 33.67 7.59 34.32 C9.15 34.95 10.84 35.27 12.67 35.27 C14.48 35.27 16.17 34.95 17.73 34.32 C19.28 33.67 20.62
						 32.77 21.74 31.64 C22.88 30.48 23.75 29.13 24.38 27.57 C25.01 26.02 25.33 24.31 25.33 22.45 C25.33 20.6
						 25.01 18.9 24.38 17.34 C23.75 15.78 22.88 14.44 21.74 13.32 C20.62 12.16 19.28 11.26 17.73 10.64 C16.17
						 9.98 14.48 9.64 12.67 9.64 ZM12.67 15.31 C13.52 15.31 14.3 15.49 15 15.85 C15.69 16.21 16.27 16.71 16.74
						 17.34 C17.23 17.97 17.61 18.73 17.88 19.62 C18.14 20.49 18.28 21.43 18.28 22.45 C18.28 23.48 18.14 24.44
						 17.88 25.34 C17.61 26.2 17.23 26.94 16.74 27.57 C16.27 28.2 15.69 28.69 15 29.06 C14.3 29.42 13.52 29.61
						 12.67 29.61 C11.8 29.61 11.02 29.42 10.33 29.06 C9.64 28.69 9.04 28.2 8.54 27.57 C8.08 26.94 7.71 26.2 7.45
						 25.34 C7.18 24.44 7.05 23.48 7.05 22.45 C7.05 21.43 7.18 20.49 7.45 19.62 C7.71 18.73 8.08 17.97 8.54 17.34
						 C9.04 16.71 9.64 16.21 10.33 15.85 C11.02 15.49 11.8 15.31 12.67 15.31 ZM1.63 39.09 L1.63 45 L23.69 45 L23.69
						 39.09 L1.63 39.09 Z" class="st1"/>
		</g>
	</g>
</svg>
